<svg width="262" height="103" viewBox="0 0 262 103" fill="none" xmlns="http://www.w3.org/2000/svg">
<path d="M0 43.2953C0 35.3458 6.94469 28.9014 15.5114 28.9014V28.9014V75.6817V75.6817C6.94469 75.6817 0 69.2373 0 61.2877V43.2953Z" fill="#7A87FF"/>
<path d="M261.286 61.2916C261.286 69.2412 254.341 75.6855 245.774 75.6855V75.6855L245.774 28.9052V28.9052C254.341 28.9052 261.286 35.3496 261.286 43.2992L261.286 61.2916Z" fill="#7A87FF"/>
<path d="M14.5112 32.4715C14.5112 22.5191 23.1007 14.4512 33.6964 14.4512V14.4512V90.1364V90.1364C23.1007 90.1364 14.5112 82.0685 14.5112 72.1161V32.4715Z" fill="#3C4A8A"/>
<path d="M246.774 72.1164C246.774 82.0688 238.002 90.1367 227.181 90.1367V90.1367L227.181 14.4515V14.4515C238.002 14.4515 246.774 22.5194 246.774 32.4718L246.774 72.1164Z" fill="#3C4A8A"/>
<path d="M25.9409 12.6109C25.9409 5.64608 32.0087 0 39.4937 0H223.425C230.91 0 236.978 5.64608 236.978 12.6109V90.0777C236.978 97.0424 230.91 102.689 223.425 102.689H39.4937C32.0087 102.689 25.9409 97.0424 25.9409 90.0777V12.6109Z" fill="#241F45"/>
<rect x="38" y="7" width="189" height="92" fill="#241F45"/>
<path d="M41.4521 21.39C41.4521 14.4059 47.5219 8.74414 55.0094 8.74414H209.95C217.437 8.74414 223.507 14.4059 223.507 21.39V82.813C223.507 89.7971 217.437 95.4589 209.95 95.4589H55.0094C47.5219 95.4589 41.4521 89.7971 41.4521 82.813V21.39Z" fill="white"/>
<path fill-rule="evenodd" clip-rule="evenodd" d="M209.95 12.3573H55.0094C49.6612 12.3573 45.3257 16.4014 45.3257 21.39V82.813C45.3257 87.8017 49.6612 91.8458 55.0094 91.8458H209.95C215.298 91.8458 219.633 87.8017 219.633 82.813V21.39C219.633 16.4014 215.298 12.3573 209.95 12.3573ZM55.0094 8.74414C47.5219 8.74414 41.4521 14.4059 41.4521 21.39V82.813C41.4521 89.7971 47.5219 95.4589 55.0094 95.4589H209.95C217.437 95.4589 223.507 89.7971 223.507 82.813V21.39C223.507 14.4059 217.437 8.74414 209.95 8.74414H55.0094Z" fill="#3A4988"/>
</svg>
