<svg width="44" height="44" viewBox="0 0 44 44" fill="none" xmlns="http://www.w3.org/2000/svg">
<path d="M10 1.5H33.7215C38.4159 1.5 42.2215 5.30558 42.2215 10V33.7215C42.2215 38.4159 38.4159 42.2215 33.7215 42.2215H9.99999C5.30557 42.2215 1.5 38.4159 1.5 33.7215V9.99999C1.5 5.30557 5.30558 1.5 10 1.5Z" fill="white" stroke="#2288FF" stroke-width="3"/>
<path d="M20.7863 14.897L28.4375 18.702C31.8698 20.4089 31.8698 23.2004 28.4375 24.9074L20.7863 28.7124C15.6378 31.2728 13.5373 29.1747 16.1115 24.0628L16.8892 22.5248C17.0858 22.1336 17.0858 21.4846 16.8892 21.0935L16.1115 19.5466C13.5373 14.4347 15.6468 12.3366 20.7863 14.897ZM17.1484 21.8047H21.9751Z" fill="white"/>
<path d="M17.1484 21.8047H21.9751M20.7863 14.897L28.4375 18.702C31.8698 20.4089 31.8698 23.2004 28.4375 24.9074L20.7863 28.7124C15.6378 31.2728 13.5373 29.1747 16.1115 24.0628L16.8892 22.5248C17.0858 22.1336 17.0858 21.4846 16.8892 21.0935L16.1115 19.5466C13.5373 14.4347 15.6468 12.3366 20.7863 14.897Z" stroke="#2288FF" stroke-width="3" stroke-linecap="round" stroke-linejoin="round"/>
</svg>
